<svg version="1.1" xmlns="http://www.w3.org/2000/svg" width="450" height="99"
	 viewBox="0 0 450 99" xml:space="preserve">
<style type="text/css">
	.Half_x0020_Highlight_x0020_Blue{fill:url(#SVGID_1_);stroke:#FFFFFF;stroke-width:0.25;stroke-miterlimit:1;}
	.st0{display:none;}
	.st1{fill:#003899;}
	.st2{fill:#FF6B00;}
</style>
<linearGradient id="SVGID_1_" gradientUnits="userSpaceOnUse" x1="0" y1="0" x2="6.123234e-17" y2="-1">
	<stop  offset="0" style="stop-color:#2E3E97"/>
	<stop  offset="0.618" style="stop-color:#2A3180"/>
	<stop  offset="0.6292" style="stop-color:#2B348F"/>
	<stop  offset="0.9831" style="stop-color:#00629D"/>
</linearGradient>
<g id="logo_here" class="st0">
</g>
<g id="template">
	<g>
		<path class="st1" d="M111.9,42.1V19.3h5.9v38.2c0,0.2,0,0.3,0,0.3c0,6.5-2.4,12.1-7.1,16.9c-4.7,4.7-10.4,7-16.9,6.8
			c-6.3-0.2-11.6-2.5-16-7.1c-4.4-4.6-6.5-10.1-6.5-16.4c0-6.6,2.4-12.3,7.1-17c4.7-4.7,10.3-7,16.8-6.8c4,0.2,7.5,1.2,10.7,3l0,7.1
			c-3.1-2.8-6.8-4.2-11-4.2c-4.8,0-8.9,1.7-12.3,5.1c-3.4,3.4-5.2,7.5-5.3,12.4c-0.1,4.8,1.5,9,4.8,12.5c3.2,3.6,7.2,5.5,11.9,5.6
			c5,0.3,9.3-1.5,12.8-5.2c3.5-3.7,5.2-8.1,5.1-13.1V42.1z"/>
		<path class="st1" d="M328.2,57.4c-0.1-4.7-1.8-8.7-5-12c-3.2-3.4-7.1-5-11.6-5c-4.8,0-8.7,1.6-12.1,5c-3.4,3.4-5,7.3-5.1,12.1
			c-0.1,4.7,1.4,8.8,4.6,12.3c3.2,3.5,7.1,5.3,11.6,5.5c4.5,0.2,8.4-1.2,11.7-4.3v7.2c-3.5,2.1-7.4,3-11.8,2.9
			c-6.2-0.2-11.4-2.6-15.7-7.1c-4.3-4.5-6.5-9.9-6.5-16.1c0-6.5,2.3-12.1,6.9-16.7c4.6-4.7,10.1-6.9,16.6-6.6
			c6.2,0.2,11.5,2.6,15.9,7.2c4.4,4.5,6.5,9.9,6.2,16.1v0.3v22h-5.9V57.4z"/>
		<path class="st1" d="M45.7,58c0,6.4-2.3,11.9-7,16.6c-4.6,4.6-10.2,6.9-16.6,6.7c-6.2-0.2-11.4-2.5-15.7-7C2.1,69.7,0,64.3,0,58.1
			C0,51.6,2.3,46,6.9,41.4c4.6-4.6,10.1-6.9,16.5-6.7c6.2,0.2,11.4,2.6,15.7,7.1C43.5,46.4,45.7,51.8,45.7,58z M39.7,57.5
			c-0.2-4.7-1.8-8.7-5-12c-3.2-3.3-7.1-5-11.6-5c-4.7,0-8.8,1.6-12.1,5c-3.3,3.4-5,7.4-5.1,12.2c-0.1,4.7,1.4,8.8,4.6,12.3
			c3.2,3.5,7.1,5.4,11.6,5.5c4.9,0.3,9.1-1.4,12.5-5.1C38.2,66.7,39.8,62.4,39.7,57.5z"/>
		<path class="st1" d="M168.3,60h-39.9c0.5,4.5,2.4,8.2,5.7,11.1c3.3,2.9,7.2,4.3,11.8,4.3c7-0.1,12-3.4,15-9.7h6.3
			c-1.7,4.8-4.5,8.6-8.4,11.4c-3.9,2.8-8.3,4.2-13.2,4.3c-6.1,0.1-11.5-2.1-16.1-6.7c-4.7-4.5-7.1-10-7.2-16.2
			c-0.2-6.6,2.2-12.4,7.1-17.2c4.9-4.8,10.6-7,17.2-6.7c5.9,0.4,11.1,2.8,15.4,7.3c4.2,4.5,6.3,9.5,6.3,15V60z M162.4,54.6
			c-0.8-4.2-2.8-7.5-5.8-10.1c-3.1-2.6-6.7-3.9-11-3.9c-4.3,0-8,1.2-11.2,3.8c-3.2,2.6-5.2,6-6,10.2H162.4z"/>
		<path class="st1" d="M285.1,67.1l-0.6,1.3c-4.7,8.6-11.9,12.9-21.7,12.8c-6.4-0.1-12-2.3-16.7-6.8c-4.7-4.5-7-9.9-7.1-16.3
			c-0.1-6.4,2.2-12,6.9-16.6c4.7-4.6,10.3-6.9,16.9-7.1c4.7-0.1,9,1.2,13.1,3.7c3.8,2.4,6.6,5.4,8.3,9l0.9,1.9h-6.7
			c-3.3-5.8-8.4-8.7-15.3-8.9c-4.6-0.1-8.7,1.6-12.3,5c-3.8,3.5-5.7,7.7-5.7,12.6c0,4.8,1.8,9,5.3,12.5c3.5,3.5,7.7,5.2,12.6,5.1
			c6.9-0.1,12.1-2.9,15.5-8.3H285.1z"/>
		<path class="st1" d="M409.2,80.2h-5.9V54.3c0-3.7-1.4-7-4.2-9.7c-2.8-2.7-6-4-9.7-3.9c-3.8,0.1-7,1.3-9.5,3.8
			c-2.6,2.5-3.9,5.6-3.9,9.4v26.3H370V20.1h5.9v22c3.4-4.4,7.7-6.8,13-7c5.5-0.3,10.3,1.6,14.3,5.5s6,8.7,6,14.4V80.2z"/>
		<path class="st1" d="M70.4,40.3c-3.7,0-6.9,1.3-9.7,4.1c-2.7,2.7-4.1,5.9-4.1,9.7v26h-6V54.6c0-5.8,1.9-10.5,5.6-14.4
			c3.7-3.8,8.4-5.8,14.1-5.8V40.3z"/>
		<path class="st1" d="M193.1,40.3c-3.7,0-6.9,1.3-9.7,4.1c-2.7,2.7-4.1,5.9-4.1,9.7v26h-6V54.6c0-5.8,1.9-10.5,5.6-14.4
			c3.7-3.8,8.4-5.8,14.1-5.8V40.3z"/>
		<g>
			<path class="st2" d="M207.4,17.1c13.3,0,24.8,9.9,24.8,23.6c0,5.8-2.2,11.7-5.8,16.2L202.5,86c-0.8,1-0.1,2.5,1.2,2.5h28.5v9
				h-38.1c-5.1,0-7.8-5.9-4.7-9.8l26.4-32.4c3.2-4,7-8.9,7-14.1c0-8.2-7.3-15-15.4-15V17.1z"/>
		</g>
		<path class="st1" d="M339.2,74.4h11.7c4.7,0,8.3-3.7,8.3-8.3c0-4.3-3.1-5.7-7.4-7.2c-5.7-2.1-12.7-4.7-12.7-12.4
			c0-6.4,5.4-11.4,12.3-11.4h9v5.7l-9.2,0c-2.9,0-6.1,2.3-6.1,5.5c0,3.6,3,4.9,7.9,6.7c5.5,2,12.2,4.5,12.2,13.4
			c0,7.9-6.2,13.9-14.3,13.9h-11.7V74.4z"/>
		<g>
			<polygon class="st2" points="424.9,25.5 429.1,26.9 430,25.2 425.8,23.8 			"/>
			<polygon class="st2" points="422.5,20.8 430.9,23.5 431.8,21.8 423.4,19.1 			"/>
			<polygon class="st2" points="424.4,17.4 432.8,20.1 433.7,18.4 425.3,15.7 			"/>
			<polygon class="st2" points="427.1,12.3 426.2,14 434.6,16.7 435.5,15 			"/>
			<path class="st2" d="M428.4,0c-10.8,0-19.5,8.7-19.5,19.5c0,9.5,6.8,17.4,15.8,19.2l1.9-3.5c-7.8-0.9-13.9-7.6-13.9-15.6
				c0-8.7,7.1-15.7,15.7-15.7c8.7,0,15.7,7.1,15.7,15.7c0.1,4-1.6,7.2-4.8,9.7c-1.1,0.8-2,1-3,1c-1,0-2.3-0.5-2.7-1.3
				c-0.3-0.5-0.3-1,0-1.6c0.2-0.3,6.8-12.7,7.2-13.5c0.4-0.8,0.1-1.5-0.7-1.8c-0.8-0.3-12.3-4-13.5-4.4c-1.2-0.4-1.7,0-2.2,0.9
				c-0.5,0.9-8.4,15.8-8.9,16.8c-0.5,1,0,1.6,0.7,1.8c0.7,0.2,18.1,6,18.1,6c2.1,0.6,5.5,0.3,7.8-1.2c3.3-2.2,5.7-6.5,5.7-12.4
				C447.9,8.7,439.2,0,428.4,0z M418.5,25.1l7.9-14.9l11.5,3.7l-7.9,14.8L418.5,25.1z M437.9,14l-7.9,14.8"/>
		</g>
	</g>
</g>
</svg>
